<svg width="61" height="46" viewBox="0 0 61 46" fill="none" xmlns="http://www.w3.org/2000/svg">
<path d="M46 11V9H48V11H46ZM47.4142 45.4142C46.6332 46.1953 45.3668 46.1953 44.5858 45.4142L31.8579 32.6863C31.0768 31.9052 31.0768 30.6389 31.8579 29.8579C32.6389 29.0768 33.9052 29.0768 34.6863 29.8579L46 41.1716L57.3137 29.8579C58.0948 29.0768 59.3611 29.0768 60.1421 29.8579C60.9232 30.6389 60.9232 31.9052 60.1421 32.6863L47.4142 45.4142ZM11 0.333333C16.891 0.333333 21.6667 5.10896 21.6667 11C21.6667 16.891 16.891 21.6667 11 21.6667C5.10896 21.6667 0.333333 16.891 0.333333 11C0.333333 5.10896 5.10896 0.333333 11 0.333333ZM48 11L48 44H44L44 11L48 11ZM46 13L11 13V9L46 9V13Z" fill="white"/>
</svg>
