<svg width="62" height="82" viewBox="0 0 62 82" fill="none" xmlns="http://www.w3.org/2000/svg">
<path d="M47 11V9H49V11H47ZM48.4142 81.4142C47.6332 82.1953 46.3668 82.1953 45.5858 81.4142L32.8579 68.6863C32.0768 67.9052 32.0768 66.6389 32.8579 65.8579C33.6389 65.0768 34.9052 65.0768 35.6863 65.8579L47 77.1716L58.3137 65.8579C59.0948 65.0768 60.3611 65.0768 61.1421 65.8579C61.9232 66.6389 61.9232 67.9052 61.1421 68.6863L48.4142 81.4142ZM11 0.333333C16.891 0.333333 21.6667 5.10896 21.6667 11C21.6667 16.891 16.891 21.6667 11 21.6667C5.10896 21.6667 0.333333 16.891 0.333333 11C0.333333 5.10896 5.10896 0.333333 11 0.333333ZM49 11L49 80H45L45 11H49ZM47 13L11 13V9L47 9V13Z" fill="#F3511F"/>
</svg>
