<svg width="334" height="58" viewBox="0 0 334 58" fill="none" xmlns="http://www.w3.org/2000/svg">
<path d="M16.865 35.635C19.89 26.34 24.84 13.085 25.665 12.26C25.885 12.26 26.38 12.81 26.875 13.69L27.81 15.45L24.895 23.26C23.3 27.55 20.77 34.865 19.285 39.485C17.8 44.16 16.26 48.45 15.82 49.055C15.27 49.77 14.5 50.155 13.73 50.155C12.08 50.155 11.035 48.45 10.375 47.13C8.505 43.5 4.105 24.855 1.74 10.445C0.31 1.755 0.475 0.159996 2.675 0.489998C3.61 0.599997 3.83 1.04 3.885 2.8C4.215 9.785 12.19 44.985 13.455 44.985C13.62 44.985 15.16 40.75 16.865 35.635ZM45.8006 30.025C53.3356 33.325 56.6906 36.02 56.6906 38.77C56.6906 40.805 54.4906 42.345 50.8606 42.84C47.1756 43.335 47.0656 43.5 47.7806 46.965C48.2756 49.275 48.2756 50.1 47.7806 50.705C47.3956 51.145 47.0656 51.42 46.7906 51.42C46.4606 51.42 46.1856 51.2 45.8006 50.815C45.4706 50.485 44.9206 48.78 44.5906 47.075L43.9856 43.995L39.5306 44.16C35.7906 44.325 34.9656 44.215 34.4706 43.445C33.4806 41.905 34.7456 41.41 42.6106 40.42C50.8056 39.43 53.0606 38.935 53.0606 38.33C53.0606 37.56 48.9906 35.195 44.1506 33.05C38.2656 30.52 36.3406 29.255 35.9556 27.605C35.2406 24.855 36.9456 22.71 41.3456 20.675C43.7656 19.52 44.0956 19.19 44.0956 17.815C44.0956 15.395 45.5256 13.03 46.9006 13.25C48.1106 13.415 48.2756 14.46 47.5056 17.485C47.1756 18.915 47.1756 18.915 49.4856 18.915C52.4556 18.915 54.3806 20.29 53.8306 21.995C53.6106 22.71 52.5656 23.15 51.7956 23.15C51.3006 23.15 50.9156 22.985 50.9156 22.545C50.9156 22.215 50.4206 22.105 49.5956 22.105C47.7806 22.105 44.3706 22.82 42.2256 23.92C37.8806 26.065 38.2656 26.725 45.8006 30.025ZM66.9954 35.91C67.1054 30.685 66.7204 21.995 65.8954 10.61C65.6204 7.255 65.5654 4.23 65.6754 3.79C65.8954 3.295 66.5004 3.13 67.6004 3.35C68.5904 3.46 71.4504 2.91 74.6954 1.975C77.6104 1.095 78.9854 0.764998 79.8104 0.764998C80.3604 0.764998 80.6354 0.929999 80.9104 1.205C82.3954 2.69 81.2404 3.46 75.0254 5.275L68.8654 7.035L69.1954 12.81C69.8554 24.36 70.0754 25.79 71.0104 25.405C73.7604 24.25 75.3004 23.755 76.1254 23.755C76.5104 23.755 76.7304 23.81 76.8954 23.975C77.9404 25.02 77.0054 26.12 73.7054 27.825L70.5704 29.42V35.69C70.5704 42.07 71.3404 45.755 72.8804 46.36C73.2654 46.525 75.1354 46.25 77.0604 45.81C78.6004 45.48 79.7004 45.315 80.4704 45.315C81.6804 45.315 82.1204 45.7 82.1204 46.635C82.1204 48.01 81.2404 48.56 77.9954 49.275C76.1804 49.66 74.8604 49.825 73.7604 49.825C72.1104 49.825 71.0654 49.385 70.0204 48.34C67.8204 46.14 66.8304 42.125 66.9954 35.91Z" fill="white"/>
<path d="M125.725 8.685C126.935 10.17 126.165 11.325 123.91 11.38C120.39 11.545 109.94 15.505 108.29 17.375C106.585 19.245 106.585 17.155 107.74 24.965C107.96 26.725 103.725 33.105 103.835 35.415C104.22 41.465 108.62 46.635 108.015 49.495L107.52 51.97L122.315 52.245V53.565C122.315 54.775 122.095 54.885 119.455 55.215C117.145 55.49 114.34 55.6 111.81 55.6C108.51 55.6 105.65 55.38 105.045 54.94C104.22 54.335 104.11 53.785 104.385 50.87C105.1 43.94 100.81 40.75 100.535 36.185C100.425 34.535 104.77 28.815 104.55 27.22C102.625 12.92 103.34 14.24 116.21 10.005C120.5 8.63 122.7 8.025 124.02 8.025C124.9 8.025 125.34 8.245 125.725 8.685ZM146.201 45.205C137.566 43.445 135.201 41.85 133.661 36.68C132.616 33.27 132.616 26.505 133.661 22.215C134.596 18.2 140.041 4.56 145.431 4.56C146.311 4.56 147.026 5.055 147.301 5.935C147.741 7.31 146.696 8.52 145.101 8.52C144.111 8.52 143.341 9.235 141.801 11.71C136.576 19.74 134.706 30.3 137.291 36.68C138.446 39.54 139.821 40.255 147.136 41.795C153.406 43.115 154.396 43.665 153.516 45.095C153.131 45.7 152.636 46.03 151.536 46.03C150.491 46.03 148.841 45.755 146.201 45.205ZM161.181 33.16C161.016 33.325 161.346 36.735 161.896 40.695C162.501 44.655 162.886 48.175 162.776 48.505C162.556 49.11 162.006 49.44 161.401 49.44C161.016 49.44 160.631 49.275 160.356 49C159.531 48.175 158.321 40.915 157.056 29.31C155.901 18.64 156.176 3.46 157.551 2.14C158.211 1.48 160.136 1.15 162.336 1.15C164.866 1.15 167.726 1.59 169.266 2.415C175.536 5.715 178.946 12.645 177.791 19.795C177.021 24.745 174.436 28.595 170.091 31.4L167.836 32.83L172.181 36.515C178.396 41.85 181.091 44.71 180.871 45.865C180.761 46.58 180.431 46.91 179.936 46.91C179.056 46.91 177.516 45.92 175.206 43.885C165.636 35.525 161.786 32.555 161.181 33.16ZM160.301 28.925C160.466 30.08 160.686 30.575 160.906 30.575C161.016 30.575 161.071 30.52 161.181 30.41C161.511 30.08 162.501 29.805 163.436 29.805C167.616 29.805 172.346 26.01 173.886 21.445C174.931 18.2 174.766 14.185 173.391 11.38C171.466 7.255 167.011 4.175 162.996 4.175C160.906 4.175 160.301 4.23 159.806 6.485C159.366 8.575 159.751 25.075 160.301 28.925ZM198.988 14.185C199.483 12.425 203.113 0.819997 205.203 0.819997C205.973 0.819997 207.348 1.755 207.348 2.415C207.348 2.525 206.578 4.23 205.588 6.155C204.598 8.135 203.168 12.04 202.398 14.955C199.373 26.065 196.843 32.115 194.863 32.72C194.093 32.995 193.763 34.095 193.213 37.89C192.333 43.61 192.388 45.15 193.433 45.755C194.588 46.415 194.423 48.065 193.048 49C192.333 49.55 191.783 49.77 191.288 49.77C190.793 49.77 190.408 49.55 189.968 49C189.473 48.34 189.253 45.865 189.143 39.815C189.088 33.49 188.868 31.235 188.263 30.3C187.383 28.925 184.523 14.24 183.973 8.355C183.588 4.175 184.138 2.855 186.173 3.24C186.888 3.35 187.108 4.12 187.163 7.365C187.273 9.51 188.043 14.955 188.978 19.41C190.518 27.055 191.508 29.915 192.663 29.915C193.983 29.915 196.073 24.745 198.988 14.185ZM212.969 7.97C211.044 8.41 210.274 6.54 211.814 5.11C212.419 4.56 213.079 4.065 213.244 4.065C213.409 4.065 213.574 3.405 213.574 2.635C213.519 1.59 214.179 0.929999 214.894 0.929999C215.334 0.929999 215.829 1.205 216.214 1.7C216.544 2.14 216.764 2.305 217.424 2.305C217.919 2.305 218.689 2.195 219.899 1.92C221.219 1.645 222.484 1.535 223.749 1.535C231.559 1.535 238.049 6.43 238.049 13.14C238.049 14.68 237.719 16.605 237.224 17.43C235.464 20.84 227.874 26.835 219.624 31.455C218.029 32.335 217.974 32.39 217.974 36.46C217.974 40.805 217.259 45.81 216.324 48.23C215.994 49.165 215.224 49.66 214.564 49.66C214.124 49.66 213.684 49.385 213.464 48.835C213.244 48.395 213.519 45.7 213.959 42.84C215.169 35.69 215.114 33.93 213.794 33.93C212.089 33.93 211.869 32.39 213.299 31.125L214.619 30.025L214.179 7.64L212.969 7.97ZM220.284 5.165C217.479 5.825 217.204 5.99 217.314 7.2C217.369 7.915 217.589 12.92 217.754 18.365L218.084 28.21L220.009 27.055C221.054 26.395 223.199 25.075 224.794 24.085C229.139 21.39 231.614 19.3 233.264 16.99C235.079 14.46 235.189 12.205 233.594 9.785C231.449 6.595 227.654 4.78 223.529 4.78C222.484 4.78 221.384 4.89 220.284 5.165ZM270.049 1.59C271.699 3.295 269.994 4.01 262.019 5L254.704 5.935V19.795C254.759 33.27 254.814 33.93 256.244 39.98C258.169 47.955 258.224 49.385 256.684 49.605C256.024 49.715 255.364 49.385 255.089 48.835C254.429 47.57 252.504 39.32 251.844 35.03C251.514 33.16 251.294 25.955 251.294 19.025V6.43H246.179C241.064 6.43 241.064 6.43 241.064 5.11C241.064 3.845 241.119 3.79 246.234 3.57C250.414 3.35 251.459 3.13 251.899 2.36C252.229 1.81 252.834 1.48 253.494 1.48C253.934 1.48 254.429 1.645 254.759 1.975C254.924 2.14 255.364 2.195 256.134 2.195C257.344 2.195 259.324 2.03 262.239 1.645C265.539 1.205 267.299 0.984999 268.344 0.984999C269.334 0.984999 269.664 1.205 270.049 1.59ZM304.406 31.07C303.306 38.055 299.401 43.61 293.296 46.855C289.941 48.67 287.576 48.89 283.836 48.89C281.801 48.89 280.866 48.615 279.381 47.845C271.956 44.05 268.436 32.5 270.416 18.145C271.076 13.415 272.891 9.015 275.256 6.54C277.621 4.01 281.306 1.755 283.011 1.755C285.211 1.755 287.136 2.635 287.191 3.68C287.191 4.23 288.896 5.825 291.206 7.53C302.151 15.395 305.836 22.05 304.406 31.07ZM284.551 45.59C290.931 45.59 296.926 40.915 299.621 35.305C300.776 32.885 300.996 31.675 300.996 27.99C301.051 24.305 300.831 23.095 299.841 21.225C298.026 17.815 295.001 14.845 288.346 9.785L282.296 5.22L280.371 6.265C278.171 7.53 275.366 11.38 274.431 14.515C273.991 15.89 273.771 19.85 273.771 25.35C273.771 33.215 273.881 34.26 275.036 37.12C276.466 40.75 279.766 44.545 282.131 45.26C282.846 45.48 283.671 45.59 284.551 45.59ZM333.515 37.725C333.24 42.29 328.95 45.48 329.665 52.41C329.94 55.325 329.83 55.875 329.005 56.48C328.455 56.92 325.595 57.14 322.24 57.14C319.71 57.14 316.905 57.03 314.595 56.755C312.01 56.425 311.735 56.315 311.735 55.105V53.785L326.53 53.51L326.035 51.035C325.43 48.175 329.83 43.005 330.215 36.955C330.325 34.645 326.09 28.265 326.365 26.505C327.465 18.695 327.465 20.785 325.76 18.915C324.11 17.045 313.66 13.085 310.195 12.92C307.885 12.865 307.115 11.71 308.325 10.225C308.71 9.785 309.15 9.565 310.03 9.565C311.35 9.565 313.55 10.17 317.84 11.545C330.71 15.78 331.425 14.46 329.5 28.76C329.28 30.355 333.625 36.075 333.515 37.725Z" fill="#F3511F"/>
</svg>
