<svg width="159" height="20" viewBox="0 0 159 20" fill="none" xmlns="http://www.w3.org/2000/svg">
<mask id="path-1-outside-1_799_2636" maskUnits="userSpaceOnUse" x="-1" y="-1" width="161" height="22" fill="black">
<rect fill="white" x="-1" y="-1" width="161" height="22"/>
<path d="M4.28125 2L8.14844 14.1562H8.29688L12.1719 2H15.9219L10.4063 18H6.04688L0.523438 2H4.28125ZM23.1289 20V-1.19209e-06H24.4102V20H23.1289ZM26.5273 6.60156C26.4648 5.97135 26.1966 5.48177 25.7227 5.13281C25.2487 4.78385 24.6055 4.60937 23.793 4.60937C23.2409 4.60937 22.7747 4.6875 22.3945 4.84375C22.0143 4.99479 21.7227 5.20573 21.5195 5.47656C21.3216 5.7474 21.2227 6.05469 21.2227 6.39844C21.2122 6.6849 21.2721 6.9349 21.4023 7.14844C21.5378 7.36198 21.7227 7.54687 21.957 7.70312C22.1914 7.85417 22.4622 7.98698 22.7695 8.10156C23.0768 8.21094 23.4049 8.30469 23.7539 8.38281L25.1914 8.72656C25.8893 8.88281 26.5299 9.09115 27.1133 9.35156C27.6966 9.61198 28.2018 9.93229 28.6289 10.3125C29.056 10.6927 29.3867 11.1406 29.6211 11.6562C29.8607 12.1719 29.9831 12.763 29.9883 13.4297C29.9831 14.4089 29.7331 15.2578 29.2383 15.9766C28.7487 16.6901 28.0404 17.2448 27.1133 17.6406C26.1914 18.0312 25.0794 18.2266 23.7773 18.2266C22.4857 18.2266 21.3607 18.0286 20.4023 17.6328C19.4492 17.237 18.7044 16.651 18.168 15.875C17.6367 15.0937 17.3581 14.1276 17.332 12.9766H20.6055C20.6419 13.513 20.7956 13.9609 21.0664 14.3203C21.3424 14.6745 21.7096 14.9427 22.168 15.125C22.6315 15.3021 23.1549 15.3906 23.7383 15.3906C24.3112 15.3906 24.8086 15.3073 25.2305 15.1406C25.6576 14.974 25.9883 14.7422 26.2227 14.4453C26.457 14.1484 26.5742 13.8073 26.5742 13.4219C26.5742 13.0625 26.4674 12.7604 26.2539 12.5156C26.0456 12.2708 25.7383 12.0625 25.332 11.8906C24.931 11.7187 24.4388 11.5625 23.8555 11.4219L22.1133 10.9844C20.7643 10.6562 19.6992 10.1432 18.918 9.44531C18.1367 8.7474 17.7487 7.80729 17.7539 6.625C17.7487 5.65625 18.0065 4.8099 18.5273 4.08594C19.0534 3.36198 19.7747 2.79687 20.6914 2.39062C21.6081 1.98437 22.6497 1.78125 23.8164 1.78125C25.0039 1.78125 26.0404 1.98437 26.9258 2.39062C27.8164 2.79687 28.5091 3.36198 29.0039 4.08594C29.4987 4.8099 29.7539 5.64844 29.7695 6.60156H26.5273ZM32.2637 18V2H43.0449V4.78906H35.6465V8.60156H42.4902V11.3906H35.6465V15.2109H43.0762V18H32.2637ZM50.1152 10.0703V8.5C51.0163 8.5 51.6413 8.32031 51.9902 7.96094C52.3392 7.60156 52.5137 7.02083 52.5137 6.21875V4.49219C52.5137 3.52865 52.6465 2.75781 52.9121 2.17969C53.1829 1.59635 53.5579 1.15625 54.0371 0.859375C54.5215 0.5625 55.0944 0.364583 55.7559 0.265624C56.4173 0.166666 57.1413 0.117187 57.9277 0.117187V2.60156C57.3132 2.60156 56.8444 2.68229 56.5215 2.84375C56.2038 3 55.9876 3.24479 55.873 3.57812C55.7585 3.90625 55.7012 4.32292 55.7012 4.82812V7.10937C55.7012 7.50521 55.6283 7.88281 55.4824 8.24219C55.3366 8.59635 55.0658 8.91146 54.6699 9.1875C54.2741 9.45833 53.709 9.67448 52.9746 9.83594C52.2402 9.99219 51.2871 10.0703 50.1152 10.0703ZM57.9277 19.8906C57.1413 19.8906 56.4173 19.8411 55.7559 19.7422C55.0944 19.6432 54.5215 19.4453 54.0371 19.1484C53.5579 18.8516 53.1829 18.4141 52.9121 17.8359C52.6465 17.2526 52.5137 16.4792 52.5137 15.5156V13.7812C52.5137 12.9792 52.3392 12.3984 51.9902 12.0391C51.6413 11.6797 51.0163 11.5 50.1152 11.5V9.92969C51.2871 9.92969 52.2402 10.0104 52.9746 10.1719C53.709 10.3281 54.2741 10.5443 54.6699 10.8203C55.0658 11.0911 55.3366 11.4062 55.4824 11.7656C55.6283 12.1198 55.7012 12.4974 55.7012 12.8984V15.1797C55.7012 15.6797 55.7585 16.0964 55.873 16.4297C55.9876 16.7578 56.2038 17.0026 56.5215 17.1641C56.8444 17.3203 57.3132 17.3984 57.9277 17.3984V19.8906ZM50.1152 11.5V8.5H52.9199V11.5H50.1152ZM73.9453 7.60156H70.5234C70.4609 7.15885 70.3333 6.76562 70.1406 6.42187C69.9479 6.07292 69.7005 5.77604 69.3984 5.53125C69.0964 5.28646 68.7474 5.09896 68.3516 4.96875C67.9609 4.83854 67.5365 4.77344 67.0781 4.77344C66.25 4.77344 65.5286 4.97917 64.9141 5.39062C64.2995 5.79687 63.8229 6.39062 63.4844 7.17188C63.1458 7.94792 62.9766 8.89062 62.9766 10C62.9766 11.1406 63.1458 12.099 63.4844 12.875C63.8281 13.651 64.3073 14.237 64.9219 14.6328C65.5365 15.0286 66.2474 15.2266 67.0547 15.2266C67.5078 15.2266 67.9271 15.1667 68.3125 15.0469C68.7031 14.9271 69.0495 14.7526 69.3516 14.5234C69.6536 14.2891 69.9036 14.0052 70.1016 13.6719C70.3047 13.3385 70.4453 12.9583 70.5234 12.5312L73.9453 12.5469C73.8568 13.2812 73.6354 13.9896 73.2813 14.6719C72.9323 15.349 72.4609 15.9557 71.8672 16.4922C71.2786 17.0234 70.5755 17.4453 69.7578 17.7578C68.9453 18.0651 68.026 18.2187 67 18.2187C65.5729 18.2187 64.2969 17.8958 63.1719 17.25C62.0521 16.6042 61.1667 15.6693 60.5156 14.4453C59.8698 13.2214 59.5469 11.7396 59.5469 10C59.5469 8.25521 59.875 6.77083 60.5313 5.54688C61.1875 4.32292 62.0781 3.39062 63.2031 2.75C64.3281 2.10417 65.5938 1.78125 67 1.78125C67.9271 1.78125 68.7865 1.91146 69.5781 2.17187C70.375 2.43229 71.0807 2.8125 71.6953 3.3125C72.3099 3.80729 72.8099 4.41406 73.1953 5.13281C73.5859 5.85156 73.8359 6.67448 73.9453 7.60156ZM76.3711 18V2H82.6836C83.8919 2 84.9232 2.21615 85.7773 2.64844C86.6367 3.07552 87.2904 3.68229 87.7383 4.46875C88.1914 5.25 88.418 6.16927 88.418 7.22656C88.418 8.28906 88.1888 9.20312 87.7305 9.96875C87.2721 10.7292 86.6081 11.3125 85.7383 11.7187C84.8737 12.125 83.8268 12.3281 82.5977 12.3281H78.3711V9.60937H82.0508C82.6966 9.60937 83.2331 9.52083 83.6602 9.34375C84.0872 9.16667 84.4049 8.90104 84.6133 8.54688C84.8268 8.19271 84.9336 7.7526 84.9336 7.22656C84.9336 6.69531 84.8268 6.2474 84.6133 5.88281C84.4049 5.51823 84.0846 5.24219 83.6523 5.05469C83.2253 4.86198 82.6862 4.76562 82.0352 4.76562H79.7539V18H76.3711ZM85.0117 10.7188L88.9883 18H85.2539L81.3633 10.7188H85.0117ZM89.2051 2H92.9941L96.6426 8.89062H96.7988L100.447 2H104.236L98.4004 12.3437V18H95.041V12.3437L89.2051 2ZM106.084 18V2H112.396C113.61 2 114.644 2.23177 115.498 2.69531C116.352 3.15365 117.003 3.79167 117.451 4.60937C117.904 5.42187 118.131 6.35937 118.131 7.42187C118.131 8.48437 117.902 9.42187 117.443 10.2344C116.985 11.0469 116.321 11.6797 115.451 12.1328C114.587 12.5859 113.54 12.8125 112.311 12.8125H108.287V10.1016H111.764C112.415 10.1016 112.951 9.98958 113.373 9.76562C113.8 9.53646 114.118 9.22135 114.326 8.82031C114.54 8.41406 114.646 7.94792 114.646 7.42187C114.646 6.89062 114.54 6.42708 114.326 6.03125C114.118 5.63021 113.8 5.32031 113.373 5.10156C112.946 4.8776 112.404 4.76562 111.748 4.76562H109.467V18H106.084ZM119.719 4.78906V2H132.859V4.78906H127.961V18H124.617V4.78906H119.719ZM148.996 10C148.996 11.7448 148.665 13.2292 148.004 14.4531C147.348 15.6771 146.452 16.612 145.316 17.2578C144.186 17.8984 142.915 18.2187 141.504 18.2187C140.082 18.2187 138.806 17.8958 137.676 17.25C136.546 16.6042 135.652 15.6693 134.996 14.4453C134.34 13.2214 134.012 11.7396 134.012 10C134.012 8.25521 134.34 6.77083 134.996 5.54688C135.652 4.32292 136.546 3.39062 137.676 2.75C138.806 2.10417 140.082 1.78125 141.504 1.78125C142.915 1.78125 144.186 2.10417 145.316 2.75C146.452 3.39062 147.348 4.32292 148.004 5.54688C148.665 6.77083 148.996 8.25521 148.996 10ZM145.566 10C145.566 8.86979 145.397 7.91667 145.059 7.14062C144.725 6.36458 144.254 5.77604 143.645 5.375C143.035 4.97396 142.322 4.77344 141.504 4.77344C140.686 4.77344 139.973 4.97396 139.363 5.375C138.754 5.77604 138.28 6.36458 137.941 7.14062C137.608 7.91667 137.441 8.86979 137.441 10C137.441 11.1302 137.608 12.0833 137.941 12.8594C138.28 13.6354 138.754 14.224 139.363 14.625C139.973 15.026 140.686 15.2266 141.504 15.2266C142.322 15.2266 143.035 15.026 143.645 14.625C144.254 14.224 144.725 13.6354 145.059 12.8594C145.397 12.0833 145.566 11.1302 145.566 10ZM158.432 9.92969V11.5C157.536 11.5 156.911 11.6797 156.557 12.0391C156.208 12.3984 156.033 12.9792 156.033 13.7812V15.5156C156.033 16.4792 155.898 17.2526 155.627 17.8359C155.361 18.4141 154.986 18.8516 154.502 19.1484C154.023 19.4453 153.452 19.6432 152.791 19.7422C152.135 19.8411 151.411 19.8906 150.619 19.8906V17.3984C151.234 17.3984 151.7 17.3203 152.018 17.1641C152.34 17.0026 152.559 16.7578 152.674 16.4297C152.788 16.0964 152.846 15.6797 152.846 15.1797V12.8984C152.846 12.4974 152.919 12.1198 153.064 11.7656C153.21 11.4062 153.481 11.0911 153.877 10.8203C154.273 10.5443 154.838 10.3281 155.572 10.1719C156.307 10.0104 157.26 9.92969 158.432 9.92969ZM150.619 0.117187C151.411 0.117187 152.135 0.166666 152.791 0.265624C153.452 0.364583 154.023 0.5625 154.502 0.859375C154.986 1.15625 155.361 1.59635 155.627 2.17969C155.898 2.75781 156.033 3.52865 156.033 4.49219V6.21875C156.033 7.02083 156.208 7.60156 156.557 7.96094C156.911 8.32031 157.536 8.5 158.432 8.5V10.0703C157.26 10.0703 156.307 9.99219 155.572 9.83594C154.838 9.67448 154.273 9.45833 153.877 9.1875C153.481 8.91146 153.21 8.59635 153.064 8.24219C152.919 7.88281 152.846 7.50521 152.846 7.10937V4.82812C152.846 4.32292 152.788 3.90625 152.674 3.57812C152.559 3.24479 152.34 3 152.018 2.84375C151.7 2.68229 151.234 2.60156 150.619 2.60156V0.117187ZM158.432 8.5V11.5H155.627V8.5H158.432Z"/>
</mask>
<path d="M4.28125 2L5.23419 1.69685L5.01251 1H4.28125V2ZM8.14844 14.1562L7.1955 14.4594L7.41718 15.1562H8.14844V14.1562ZM8.29688 14.1562V15.1562H9.02769L9.24964 14.46L8.29688 14.1562ZM12.1719 2V1H11.4411L11.2191 1.69629L12.1719 2ZM15.9219 2L16.8673 2.3259L17.3244 1H15.9219V2ZM10.4062 18V19H11.1193L11.3517 18.3259L10.4062 18ZM6.04688 18L5.10161 18.3263L5.33418 19H6.04688V18ZM0.523438 2V1H-0.879687L-0.421823 2.32632L0.523438 2ZM3.32831 2.30315L7.1955 14.4594L9.10138 13.8531L5.23419 1.69685L3.32831 2.30315ZM8.14844 15.1562H8.29688V13.1562H8.14844V15.1562ZM9.24964 14.46L13.1246 2.30371L11.2191 1.69629L7.34411 13.8525L9.24964 14.46ZM12.1719 3H15.9219V1H12.1719V3ZM14.9765 1.67409L9.46085 17.6741L11.3517 18.3259L16.8673 2.3259L14.9765 1.67409ZM10.4062 17H6.04688V19H10.4062V17ZM6.99214 17.6737L1.4687 1.67368L-0.421823 2.32632L5.10161 18.3263L6.99214 17.6737ZM0.523438 3H4.28125V1H0.523438V3ZM23.1289 20H22.1289V21H23.1289V20ZM23.1289 -1.19209e-06V-1H22.1289V-1.19209e-06H23.1289ZM24.4102 -1.19209e-06H25.4102V-1H24.4102V-1.19209e-06ZM24.4102 20V21H25.4102V20H24.4102ZM26.5273 6.60156L25.5322 6.70025L25.6216 7.60156H26.5273V6.60156ZM22.3945 4.84375L22.7638 5.77317L22.7746 5.76869L22.3945 4.84375ZM21.5195 5.47656L20.7195 4.87651L20.7121 4.88655L21.5195 5.47656ZM21.2227 6.39844L22.222 6.43478L22.2227 6.41661V6.39844H21.2227ZM21.4023 7.14844L20.5485 7.66905L20.5531 7.67655L20.5578 7.68398L21.4023 7.14844ZM21.957 7.70312L21.4023 8.53518L21.4088 8.53949L21.4153 8.5437L21.957 7.70312ZM22.7695 8.10156L22.4201 9.03854L22.4272 9.04116L22.4342 9.04366L22.7695 8.10156ZM23.7539 8.38281L23.9865 7.41023L23.9794 7.40855L23.9724 7.40697L23.7539 8.38281ZM25.1914 8.72656L24.9588 9.69914L24.9659 9.70082L24.9729 9.7024L25.1914 8.72656ZM27.1133 9.35156L26.7056 10.2647H26.7056L27.1133 9.35156ZM28.6289 10.3125L29.2938 9.56559H29.2938L28.6289 10.3125ZM29.6211 11.6562L28.7107 12.0701L28.7142 12.0776L29.6211 11.6562ZM29.9883 13.4297L30.9884 13.435L30.9883 13.4219L29.9883 13.4297ZM29.2383 15.9766L28.4146 15.4095L28.4137 15.4108L29.2383 15.9766ZM27.1133 17.6406L27.5034 18.5614L27.506 18.5603L27.1133 17.6406ZM20.4023 17.6328L20.0188 18.5563L20.0206 18.5571L20.4023 17.6328ZM18.168 15.875L17.341 16.4373L17.3454 16.4436L18.168 15.875ZM17.332 12.9766V11.9766H16.3092L16.3323 12.9992L17.332 12.9766ZM20.6055 12.9766L21.6032 12.9088L21.5398 11.9766H20.6055V12.9766ZM21.0664 14.3203L20.2678 14.9222L20.2727 14.9286L20.2777 14.9351L21.0664 14.3203ZM22.168 15.125L21.7984 16.0543L21.8111 16.0592L22.168 15.125ZM25.2305 15.1406L24.8669 14.209L24.863 14.2106L25.2305 15.1406ZM26.2227 14.4453L27.0075 15.065L26.2227 14.4453ZM26.2539 12.5156L25.4923 13.1638L25.5003 13.173L26.2539 12.5156ZM25.332 11.8906L24.9381 12.8098L24.9424 12.8116L25.332 11.8906ZM23.8555 11.4219L23.6119 12.3918L23.6211 12.394L23.8555 11.4219ZM22.1133 10.9844L22.3568 10.0145L22.3496 10.0127L22.1133 10.9844ZM18.918 9.44531L18.2518 10.1911L18.918 9.44531ZM17.7539 6.625L18.7539 6.6294L18.7539 6.61962L17.7539 6.625ZM18.5273 4.08594L17.7183 3.49811L17.7156 3.50194L18.5273 4.08594ZM20.6914 2.39062L20.2862 1.47639L20.6914 2.39062ZM26.9258 2.39062L26.5088 3.29952L26.5108 3.30044L26.9258 2.39062ZM29.0039 4.08594L28.1783 4.6502L28.1783 4.6502L29.0039 4.08594ZM29.7695 6.60156V7.60156H30.7861L30.7694 6.58517L29.7695 6.60156ZM24.1289 20V-1.19209e-06H22.1289V20H24.1289ZM23.1289 0.999999H24.4102V-1H23.1289V0.999999ZM23.4102 -1.19209e-06V20H25.4102V-1.19209e-06H23.4102ZM24.4102 19H23.1289V21H24.4102V19ZM27.5225 6.50287C27.4344 5.61489 27.0364 4.85826 26.3156 4.32753L25.1298 5.93809C25.3568 6.10528 25.4953 6.32782 25.5322 6.70025L27.5225 6.50287ZM26.3156 4.32753C25.6153 3.81195 24.7394 3.60937 23.793 3.60937V5.60937C24.4716 5.60937 24.8821 5.75576 25.1298 5.93809L26.3156 4.32753ZM23.793 3.60937C23.1527 3.60937 22.5489 3.69916 22.0144 3.91881L22.7746 5.76869C23.0006 5.67584 23.3291 5.60937 23.793 5.60937V3.60937ZM22.0253 3.9144C21.5098 4.11922 21.0542 4.4303 20.7195 4.87656L22.3195 6.07656C22.3911 5.98116 22.5189 5.87037 22.7637 5.7731L22.0253 3.9144ZM20.7121 4.88655C20.3858 5.33314 20.2227 5.8482 20.2227 6.39844H22.2227C22.2227 6.26118 22.2574 6.16165 22.3269 6.06658L20.7121 4.88655ZM20.2233 6.3621C20.2068 6.81503 20.302 7.26465 20.5485 7.66905L22.2561 6.62783C22.2423 6.60515 22.2176 6.55476 22.222 6.43478L20.2233 6.3621ZM20.5578 7.68398C20.7762 8.02832 21.065 8.31029 21.4023 8.53518L22.5117 6.87107C22.3803 6.78346 22.2993 6.69564 22.2469 6.6129L20.5578 7.68398ZM21.4153 8.5437C21.7196 8.7398 22.0569 8.9031 22.4201 9.03854L23.1189 7.16458C22.8676 7.07086 22.6632 6.96853 22.4987 6.86255L21.4153 8.5437ZM22.4342 9.04366C22.7832 9.16787 23.1506 9.2725 23.5354 9.35865L23.9724 7.40697C23.6593 7.33687 23.3705 7.254 23.1049 7.15946L22.4342 9.04366ZM23.5213 9.35539L24.9588 9.69914L25.424 7.75398L23.9865 7.41023L23.5213 9.35539ZM24.9729 9.7024C25.6135 9.84581 26.1898 10.0344 26.7056 10.2647L27.5209 8.43842C26.8701 8.14786 26.1652 7.91982 25.4099 7.75072L24.9729 9.7024ZM26.7056 10.2647C27.206 10.4881 27.622 10.755 27.964 11.0594L29.2938 9.56559C28.7816 9.10961 28.1872 8.73586 27.5209 8.43842L26.7056 10.2647ZM27.964 11.0594C28.2879 11.3478 28.5346 11.6826 28.7107 12.0701L30.5315 11.2424C30.2388 10.5986 29.824 10.0376 29.2938 9.56559L27.964 11.0594ZM28.7142 12.0776C28.8841 12.4432 28.984 12.8893 28.9883 13.4375L30.9883 13.4219C30.9821 12.6367 30.8373 11.9006 30.528 11.2349L28.7142 12.0776ZM28.9883 13.4244C28.984 14.2283 28.782 14.8759 28.4146 15.4095L30.062 16.5436C30.6842 15.6398 30.9821 14.5894 30.9883 13.435L28.9883 13.4244ZM28.4137 15.4108C28.0483 15.9434 27.5024 16.3871 26.7206 16.7209L27.506 18.5603C28.5783 18.1024 29.4491 17.4368 30.0629 16.5423L28.4137 15.4108ZM26.7231 16.7199C25.9557 17.045 24.9838 17.2266 23.7773 17.2266V19.2266C25.175 19.2266 26.4271 19.0175 27.5034 18.5614L26.7231 16.7199ZM23.7773 17.2266C22.5855 17.2266 21.5956 17.0437 20.7841 16.7086L20.0206 18.5571C21.1258 19.0136 22.3858 19.2266 23.7773 19.2266V17.2266ZM20.7859 16.7093C19.9928 16.3799 19.4076 15.9096 18.9906 15.3064L17.3454 16.4436C18.0013 17.3924 18.9056 18.094 20.0188 18.5563L20.7859 16.7093ZM18.9949 15.3127C18.5937 14.7227 18.3544 13.9546 18.3318 12.9539L16.3323 12.9992C16.3617 14.3006 16.6797 15.4648 17.341 16.4373L18.9949 15.3127ZM17.332 13.9766H20.6055V11.9766H17.332V13.9766ZM19.6078 13.0444C19.6548 13.7361 19.8591 14.3798 20.2678 14.9222L21.865 13.7185C21.7321 13.542 21.6291 13.2899 21.6032 12.9088L19.6078 13.0444ZM20.2777 14.9351C20.6736 15.443 21.1916 15.8129 21.7984 16.0542L22.5375 14.1958C22.2277 14.0725 22.0113 13.906 21.8551 13.7056L20.2777 14.9351ZM21.8111 16.0592C22.4067 16.2867 23.054 16.3906 23.7383 16.3906V14.3906C23.2559 14.3906 22.8563 14.3175 22.5248 14.1908L21.8111 16.0592ZM23.7383 16.3906C24.4052 16.3906 25.0327 16.294 25.5979 16.0707L24.863 14.2106C24.5845 14.3206 24.2172 14.3906 23.7383 14.3906V16.3906ZM25.594 16.0722C26.1517 15.8546 26.6417 15.5283 27.0075 15.065L25.4378 13.8257C25.3348 13.9561 25.1634 14.0933 24.8669 14.209L25.594 16.0722ZM27.0075 15.065C27.3841 14.588 27.5742 14.0275 27.5742 13.4219H25.5742C25.5742 13.5871 25.53 13.7089 25.4378 13.8257L27.0075 15.065ZM27.5742 13.4219C27.5742 12.8484 27.3972 12.305 27.0075 11.8583L25.5003 13.173C25.5377 13.2159 25.5742 13.2766 25.5742 13.4219H27.5742ZM27.0154 11.8675C26.6757 11.4683 26.2209 11.1809 25.7217 10.9697L24.9424 12.8116C25.2557 12.9441 25.4155 13.0734 25.4924 13.1637L27.0154 11.8675ZM25.726 10.9715C25.2582 10.771 24.709 10.599 24.0898 10.4497L23.6211 12.394C24.1686 12.526 24.6038 12.6665 24.9381 12.8098L25.726 10.9715ZM24.099 10.452L22.3568 10.0145L21.8697 11.9543L23.6119 12.3918L24.099 10.452ZM22.3496 10.0127C21.1104 9.71126 20.2095 9.25819 19.5842 8.69955L18.2518 10.1911C19.1889 11.0283 20.4183 11.6012 21.8769 11.956L22.3496 10.0127ZM19.5842 8.69955C19.0452 8.21807 18.7498 7.56635 18.7539 6.6294L16.7539 6.62059C16.7476 8.04823 17.2282 9.27673 18.2518 10.1911L19.5842 8.69955ZM18.7539 6.61962C18.7497 5.84304 18.9525 5.20728 19.3391 4.66994L17.7156 3.50194C17.0605 4.41251 16.7477 5.46945 16.7539 6.63037L18.7539 6.61962ZM19.3363 4.67376C19.7468 4.10883 20.3211 3.64855 21.0966 3.30486L20.2862 1.47639C19.2284 1.9452 18.36 2.61512 17.7184 3.49811L19.3363 4.67376ZM21.0966 3.30486C21.8665 2.96366 22.7667 2.78125 23.8164 2.78125V0.78125C22.5328 0.78125 21.3497 1.00509 20.2862 1.47639L21.0966 3.30486ZM23.8164 2.78125C24.8908 2.78125 25.7796 2.96496 26.5088 3.29952L27.3428 1.48173C26.3011 1.00379 25.117 0.78125 23.8164 0.78125V2.78125ZM26.5108 3.30044C27.2554 3.6401 27.798 4.0937 28.1783 4.6502L29.8295 3.52168C29.2203 2.63026 28.3774 1.95364 27.3408 1.48081L26.5108 3.30044ZM28.1783 4.6502C28.553 5.19843 28.757 5.84278 28.7697 6.61795L30.7694 6.58517C30.7509 5.4541 30.4444 4.42136 29.8295 3.52168L28.1783 4.6502ZM29.7695 5.60156H26.5273V7.60156H29.7695V5.60156ZM32.2637 18H31.2637V19H32.2637V18ZM32.2637 2V1H31.2637V2H32.2637ZM43.0449 2H44.0449V1H43.0449V2ZM43.0449 4.78906V5.78906H44.0449V4.78906H43.0449ZM35.6465 4.78906V3.78906H34.6465V4.78906H35.6465ZM35.6465 8.60156H34.6465V9.60156H35.6465V8.60156ZM42.4902 8.60156H43.4902V7.60156H42.4902V8.60156ZM42.4902 11.3906V12.3906H43.4902V11.3906H42.4902ZM35.6465 11.3906V10.3906H34.6465V11.3906H35.6465ZM35.6465 15.2109H34.6465V16.2109H35.6465V15.2109ZM43.0762 15.2109H44.0762V14.2109H43.0762V15.2109ZM43.0762 18V19H44.0762V18H43.0762ZM33.2637 18V2H31.2637V18H33.2637ZM32.2637 3H43.0449V1H32.2637V3ZM42.0449 2V4.78906H44.0449V2H42.0449ZM43.0449 3.78906H35.6465V5.78906H43.0449V3.78906ZM34.6465 4.78906V8.60156H36.6465V4.78906H34.6465ZM35.6465 9.60156H42.4902V7.60156H35.6465V9.60156ZM41.4902 8.60156V11.3906H43.4902V8.60156H41.4902ZM42.4902 10.3906H35.6465V12.3906H42.4902V10.3906ZM34.6465 11.3906V15.2109H36.6465V11.3906H34.6465ZM35.6465 16.2109H43.0762V14.2109H35.6465V16.2109ZM42.0762 15.2109V18H44.0762V15.2109H42.0762ZM43.0762 17H32.2637V19H43.0762V17ZM50.1152 10.0703H49.1152V11.0703H50.1152V10.0703ZM50.1152 8.5V7.5H49.1152V8.5H50.1152ZM52.9121 2.17969L52.0051 1.75857L52.0034 1.76219L52.9121 2.17969ZM54.0371 0.859375L53.5145 0.00676441L53.5104 0.00930643L54.0371 0.859375ZM55.7559 0.265624L55.6079 -0.723369L55.7559 0.265624ZM57.9277 0.117188H58.9277V-0.882813H57.9277V0.117188ZM57.9277 2.60156V3.60156H58.9277V2.60156H57.9277ZM56.5215 2.84375L56.9628 3.74112L56.9687 3.73818L56.5215 2.84375ZM55.873 3.57812L56.8172 3.90781L56.8187 3.9032L55.873 3.57812ZM55.4824 8.24219L56.4071 8.62294L56.409 8.6182L55.4824 8.24219ZM54.6699 9.1875L55.2346 10.0128L55.2419 10.0077L54.6699 9.1875ZM52.9746 9.83594L53.1827 10.8141L53.1893 10.8126L52.9746 9.83594ZM57.9277 19.8906V20.8906H58.9277V19.8906H57.9277ZM54.0371 19.1484L53.5104 19.9985L53.5145 20.001L54.0371 19.1484ZM52.9121 17.8359L52.002 18.2504L52.0066 18.2602L52.9121 17.8359ZM51.9902 12.0391L52.7077 11.3424L51.9902 12.0391ZM50.1152 11.5H49.1152V12.5H50.1152V11.5ZM50.1152 9.92969V8.92969H49.1152V9.92969H50.1152ZM52.9746 10.1719L52.7599 11.1486L52.7665 11.15L52.9746 10.1719ZM54.6699 10.8203L54.0979 11.6406L54.1052 11.6456L54.6699 10.8203ZM55.4824 11.7656L54.5558 12.1416L54.5577 12.1464L55.4824 11.7656ZM55.873 16.4297L54.9273 16.7548L54.929 16.7594L55.873 16.4297ZM56.5215 17.1641L56.0684 18.0555L56.0771 18.06L56.0859 18.0642L56.5215 17.1641ZM57.9277 17.3984H58.9277V16.3984H57.9277V17.3984ZM50.1152 11.5H49.1152V12.5H50.1152V11.5ZM50.1152 8.5V7.5H49.1152V8.5H50.1152ZM52.9199 8.5H53.9199V7.5H52.9199V8.5ZM52.9199 11.5V12.5H53.9199V11.5H52.9199ZM51.1152 10.0703V8.5H49.1152V10.0703H51.1152ZM50.1152 9.5C51.0885 9.5 52.0667 9.31762 52.7077 8.65757L51.2728 7.2643C51.2158 7.323 50.9441 7.5 50.1152 7.5V9.5ZM52.7077 8.65757C53.3206 8.02633 53.5137 7.13117 53.5137 6.21875H51.5137C51.5137 6.9105 51.3578 7.17679 51.2728 7.2643L52.7077 8.65757ZM53.5137 6.21875V4.49219H51.5137V6.21875H53.5137ZM53.5137 4.49219C53.5137 3.60551 53.6382 2.99457 53.8208 2.59719L52.0034 1.76219C51.6548 2.52105 51.5137 3.45179 51.5137 4.49219H53.5137ZM53.8191 2.6008C54.0197 2.16882 54.2731 1.88955 54.5638 1.70944L53.5104 0.00930643C52.8428 0.422945 52.3462 1.02388 52.0051 1.75858L53.8191 2.6008ZM54.5597 1.71198C54.9112 1.49654 55.3519 1.33718 55.9038 1.25462L55.6079 -0.723369C54.8369 -0.608019 54.1318 -0.371541 53.5145 0.00677395L54.5597 1.71198ZM55.9038 1.25462C56.5087 1.16413 57.1824 1.11719 57.9277 1.11719V-0.882813C57.1001 -0.882813 56.326 -0.830796 55.6079 -0.723369L55.9038 1.25462ZM56.9277 0.117188V2.60156H58.9277V0.117188H56.9277ZM57.9277 1.60156C57.2527 1.60156 56.6013 1.68579 56.0743 1.94932L56.9687 3.73818C57.0875 3.67879 57.3736 3.60156 57.9277 3.60156V1.60156ZM56.0802 1.9464C55.5265 2.21869 55.1283 2.66855 54.9274 3.25304L56.8187 3.9032C56.847 3.82103 56.881 3.78131 56.9628 3.7411L56.0802 1.9464ZM54.929 3.24844C54.7647 3.71885 54.7012 4.25696 54.7012 4.82812H56.7012C56.7012 4.38888 56.7522 4.09364 56.8171 3.90781L54.929 3.24844ZM54.7012 4.82812V7.10937H56.7012V4.82812H54.7012ZM54.7012 7.10937C54.7012 7.37903 54.6522 7.62873 54.5558 7.86617L56.409 8.6182C56.6043 8.1369 56.7012 7.63139 56.7012 7.10937H54.7012ZM54.5577 7.86144C54.5017 7.99745 54.3772 8.1725 54.0979 8.36726L55.2419 10.0077C55.7543 9.65041 56.1714 9.19526 56.4071 8.62294L54.5577 7.86144ZM54.1052 8.36219C53.858 8.53133 53.4322 8.71145 52.7599 8.85926L53.1893 10.8126C53.9858 10.6375 54.6901 10.3853 55.2346 10.0128L54.1052 8.36219ZM52.7665 8.85783C52.1274 8.9938 51.2514 9.07031 50.1152 9.07031V11.0703C51.3228 11.0703 52.353 10.9906 53.1827 10.814L52.7665 8.85783ZM57.9277 18.8906C57.1824 18.8906 56.5087 18.8437 55.9038 18.7532L55.6079 20.7312C56.326 20.8386 57.1001 20.8906 57.9277 20.8906V18.8906ZM55.9038 18.7532C55.3519 18.6706 54.9112 18.5113 54.5597 18.2958L53.5145 20.001C54.1318 20.3794 54.8369 20.6158 55.6079 20.7312L55.9038 18.7532ZM54.5638 18.2984C54.2707 18.1168 54.0174 17.8381 53.8177 17.4117L52.0066 18.2602C52.3484 18.99 52.8452 19.5863 53.5104 19.9985L54.5638 18.2984ZM53.8222 17.4215C53.638 17.017 53.5137 16.4016 53.5137 15.5156H51.5137C51.5137 16.5567 51.655 17.4882 52.002 18.2504L53.8222 17.4215ZM53.5137 15.5156V13.7812H51.5137V15.5156H53.5137ZM53.5137 13.7812C53.5137 12.8688 53.3206 11.9737 52.7077 11.3424L51.2728 12.7357C51.3578 12.8232 51.5137 13.0895 51.5137 13.7812H53.5137ZM52.7077 11.3424C52.0667 10.6824 51.0885 10.5 50.1152 10.5V12.5C50.9441 12.5 51.2158 12.677 51.2728 12.7357L52.7077 11.3424ZM51.1152 11.5V9.92969H49.1152V11.5H51.1152ZM50.1152 10.9297C51.2502 10.9297 52.1237 11.0087 52.7599 11.1485L53.1893 9.1952C52.3568 9.01215 51.3241 8.92969 50.1152 8.92969V10.9297ZM52.7665 11.15C53.4351 11.2922 53.8553 11.4714 54.0979 11.6406L55.2419 10.0001C54.6928 9.61714 53.9829 9.36401 53.1827 9.19377L52.7665 11.15ZM54.1052 11.6456C54.3775 11.8319 54.4997 12.0033 54.5558 12.1416L56.409 11.3896C56.1735 10.8092 55.7541 10.3504 55.2346 9.995L54.1052 11.6456ZM54.5577 12.1464C54.6515 12.3741 54.7012 12.6218 54.7012 12.8984H56.7012C56.7012 12.373 56.605 11.8655 56.4071 11.3849L54.5577 12.1464ZM54.7012 12.8984V15.1797H56.7012V12.8984H54.7012ZM54.7012 15.1797C54.7012 15.7479 54.7652 16.2831 54.9274 16.7548L56.8187 16.1046C56.7517 15.9096 56.7012 15.6115 56.7012 15.1797H54.7012ZM54.929 16.7594C55.131 17.3379 55.5272 17.7805 56.0684 18.0555L56.9745 16.2726C56.8804 16.2247 56.8443 16.1777 56.8171 16.1L54.929 16.7594ZM56.0859 18.0642C56.609 18.3173 57.2554 18.3984 57.9277 18.3984V16.3984C57.3709 16.3984 57.0798 16.3233 56.957 16.2639L56.0859 18.0642ZM56.9277 17.3984V19.8906H58.9277V17.3984H56.9277ZM51.1152 11.5V8.5H49.1152V11.5H51.1152ZM50.1152 9.5H52.9199V7.5H50.1152V9.5ZM51.9199 8.5V11.5H53.9199V8.5H51.9199ZM52.9199 10.5H50.1152V12.5H52.9199V10.5ZM73.9453 7.60156V8.60156H75.0702L74.9384 7.4844L73.9453 7.60156ZM70.5234 7.60156L69.5333 7.74135L69.6547 8.60156H70.5234V7.60156ZM70.1406 6.42187L69.2652 6.90531L69.2683 6.91088L70.1406 6.42187ZM69.3984 5.53125L68.7689 6.30818V6.30818L69.3984 5.53125ZM68.3516 4.96875L68.0353 5.91744L68.0391 5.91868L68.3516 4.96875ZM64.9141 5.39062L65.4655 6.22486L65.4704 6.22159L64.9141 5.39062ZM63.4844 7.17188L64.401 7.57173L64.4019 7.56948L63.4844 7.17188ZM63.4844 12.875L62.5678 13.2749L62.5701 13.28L63.4844 12.875ZM64.9219 14.6328L64.3804 15.4735L64.9219 14.6328ZM68.3125 15.0469L68.0193 14.0908L68.0157 14.0919L68.3125 15.0469ZM69.3516 14.5234L69.956 15.3202L69.9646 15.3135L69.3516 14.5234ZM70.1016 13.6719L69.2476 13.1515L69.2417 13.1613L70.1016 13.6719ZM70.5234 12.5312L70.528 11.5313L69.6905 11.5274L69.5398 12.3513L70.5234 12.5312ZM73.9453 12.5469L74.9381 12.6666L75.0725 11.552L73.9499 11.5469L73.9453 12.5469ZM73.2812 14.6719L72.3937 14.2112L72.3924 14.2138L73.2812 14.6719ZM71.8672 16.4922L72.5372 17.2345L72.5376 17.2342L71.8672 16.4922ZM69.7578 17.7578L70.1116 18.6932L70.1148 18.6919L69.7578 17.7578ZM63.1719 17.25L62.6723 18.1163L62.674 18.1173L63.1719 17.25ZM60.5156 14.4453L59.6312 14.912L59.6328 14.9149L60.5156 14.4453ZM60.5312 5.54688L61.4126 6.01941V6.01941L60.5312 5.54688ZM63.2031 2.75L63.698 3.61899L63.701 3.61725L63.2031 2.75ZM69.5781 2.17187L69.2656 3.1218L69.2675 3.12241L69.5781 2.17187ZM71.6953 3.3125L71.0642 4.08822L71.0682 4.09143L71.6953 3.3125ZM73.1953 5.13281L72.314 5.6054L72.3167 5.61032L73.1953 5.13281ZM73.9453 6.60156H70.5234V8.60156H73.9453V6.60156ZM71.5136 7.46177C71.4361 6.91273 71.2738 6.39826 71.0129 5.93287L69.2683 6.91088C69.3929 7.13299 69.4858 7.40498 69.5333 7.74135L71.5136 7.46177ZM71.016 5.93845C70.7626 5.47965 70.4327 5.08227 70.028 4.75432L68.7689 6.30818C68.9683 6.46981 69.1332 6.66618 69.2652 6.9053L71.016 5.93845ZM70.028 4.75432C69.625 4.42776 69.1669 4.18423 68.664 4.01882L68.0391 5.91868C68.3279 6.01369 68.5677 6.14516 68.7689 6.30818L70.028 4.75432ZM68.6678 4.02007C68.1644 3.85226 67.6319 3.77344 67.0781 3.77344V5.77344C67.441 5.77344 67.7575 5.82483 68.0353 5.91743L68.6678 4.02007ZM67.0781 3.77344C66.0765 3.77344 65.1562 4.02507 64.3577 4.55966L65.4704 6.22159C65.9011 5.93326 66.4235 5.77344 67.0781 5.77344V3.77344ZM64.3626 4.55641C63.5622 5.08548 62.9702 5.84344 62.5668 6.77427L64.4019 7.56948C64.6757 6.93781 65.0367 6.50827 65.4655 6.22484L64.3626 4.55641ZM62.5678 6.77202C62.16 7.70681 61.9766 8.79373 61.9766 10H63.9766C63.9766 8.98752 64.1317 8.18902 64.401 7.57173L62.5678 6.77202ZM61.9766 10C61.9766 11.2331 62.1587 12.337 62.5678 13.2749L64.401 12.4751C64.133 11.8609 63.9766 11.0481 63.9766 10H61.9766ZM62.5701 13.28C62.9798 14.2051 63.5765 14.9558 64.3804 15.4735L65.4634 13.7921C65.038 13.5182 64.6764 13.097 64.3987 12.47L62.5701 13.28ZM64.3804 15.4735C65.173 15.9841 66.0761 16.2266 67.0547 16.2266V14.2266C66.4187 14.2266 65.8999 14.0732 65.4634 13.7921L64.3804 15.4735ZM67.0547 16.2266C67.5963 16.2266 68.1168 16.1549 68.6093 16.0018L68.0157 14.0919C67.7374 14.1784 67.4193 14.2266 67.0547 14.2266V16.2266ZM68.6057 16.0029C69.0999 15.8514 69.5533 15.6256 69.9559 15.3201L68.7472 13.7267C68.5457 13.8796 68.3064 14.0028 68.0193 14.0908L68.6057 16.0029ZM69.9646 15.3135C70.3671 15.0012 70.7004 14.622 70.9614 14.1824L69.2417 13.1613C69.1069 13.3884 68.9402 13.5769 68.7386 13.7334L69.9646 15.3135ZM70.9555 14.1922C71.2291 13.7432 71.4094 13.2453 71.5071 12.7112L69.5398 12.3513C69.4812 12.6714 69.3803 12.9338 69.2476 13.1515L70.9555 14.1922ZM70.5189 13.5312L73.9407 13.5469L73.9499 11.5469L70.528 11.5313L70.5189 13.5312ZM72.9525 12.4272C72.8789 13.0378 72.6948 13.6311 72.3937 14.2112L74.1688 15.1326C74.576 14.3481 74.8347 13.5247 74.9381 12.6666L72.9525 12.4272ZM72.3924 14.2138C72.1013 14.7785 71.7058 15.2903 71.1968 15.7502L72.5376 17.2342C73.2161 16.6211 73.7633 15.9194 74.1701 15.13L72.3924 14.2138ZM71.1971 15.7499C70.7093 16.1902 70.1152 16.5507 69.4008 16.8237L70.1148 18.6919C71.0358 18.3399 71.848 17.8566 72.5372 17.2345L71.1971 15.7499ZM69.4041 16.8225C68.7231 17.08 67.9266 17.2188 67 17.2188V19.2188C68.1255 19.2188 69.1676 19.0502 70.1116 18.6932L69.4041 16.8225ZM67 17.2188C65.7297 17.2188 64.6284 16.9331 63.6697 16.3827L62.674 18.1173C63.9654 18.8586 65.4162 19.2188 67 19.2188V17.2188ZM63.6715 16.3837C62.7259 15.8384 61.9681 15.0466 61.3985 13.9757L59.6328 14.9149C60.3652 16.2919 61.3782 17.3699 62.6723 18.1163L63.6715 16.3837ZM61.4001 13.9786C60.8472 12.9308 60.5469 11.6179 60.5469 10H58.5469C58.5469 11.8613 58.8924 13.5119 59.6312 14.912L61.4001 13.9786ZM60.5469 10C60.5469 8.37866 60.8517 7.06545 61.4126 6.01941L59.6499 5.07434C58.8983 6.47621 58.5469 8.13176 58.5469 10H60.5469ZM61.4126 6.01941C61.9866 4.94876 62.7485 4.15965 63.698 3.61899L62.7083 1.88101C61.4077 2.6216 60.3884 3.69707 59.6499 5.07434L61.4126 6.01941ZM63.701 3.61725C64.6619 3.06564 65.7533 2.78125 67 2.78125V0.78125C65.4342 0.78125 63.9944 1.14269 62.7053 1.88275L63.701 3.61725ZM67 2.78125C67.8327 2.78125 68.5855 2.89806 69.2656 3.1218L69.8906 1.22195C68.9874 0.924859 68.0214 0.78125 67 0.78125V2.78125ZM69.2675 3.12241C69.9546 3.34694 70.5503 3.67008 71.0642 4.08821L72.3264 2.53679C71.6112 1.95492 70.7954 1.51764 69.8888 1.22134L69.2675 3.12241ZM71.0682 4.09143C71.5749 4.49933 71.9898 5.0007 72.314 5.60539L74.0766 4.66024C73.63 3.82743 73.0449 3.11526 72.3224 2.53357L71.0682 4.09143ZM72.3167 5.61032C72.6386 6.20269 72.8556 6.90027 72.9522 7.71873L74.9384 7.4844C74.8162 6.44869 74.5332 5.50043 74.0739 4.6553L72.3167 5.61032ZM76.3711 18H75.3711V19H76.3711V18ZM76.3711 2V1H75.3711V2H76.3711ZM85.7773 2.64844L85.3258 3.5407L85.3323 3.54395L85.7773 2.64844ZM87.7383 4.46875L86.8693 4.96366L86.8733 4.97047L87.7383 4.46875ZM87.7305 9.96875L88.5869 10.485L88.5885 10.4824L87.7305 9.96875ZM85.7383 11.7188L85.3151 10.8127L85.313 10.8137L85.7383 11.7188ZM78.3711 12.3281H77.3711V13.3281H78.3711V12.3281ZM78.3711 9.60938V8.60938H77.3711V9.60938H78.3711ZM83.6602 9.34375L84.0432 10.2675H84.0432L83.6602 9.34375ZM84.6133 8.54688L83.7569 8.0305L83.7514 8.03986L84.6133 8.54688ZM84.6133 5.88281L83.745 6.37898L83.7504 6.38822L84.6133 5.88281ZM83.6523 5.05469L83.2411 5.96619L83.2477 5.9692L83.2544 5.97211L83.6523 5.05469ZM79.7539 4.76562V3.76562H78.7539V4.76562H79.7539ZM79.7539 18V19H80.7539V18H79.7539ZM85.0117 10.7188L85.8894 10.2394L85.605 9.71875H85.0117V10.7188ZM88.9883 18V19H90.6738L89.8659 17.5207L88.9883 18ZM85.2539 18L84.3719 18.4713L84.6544 19H85.2539V18ZM81.3633 10.7188V9.71875H79.6951L80.4813 11.19L81.3633 10.7188ZM77.3711 18V2H75.3711V18H77.3711ZM76.3711 3H82.6836V1H76.3711V3ZM82.6836 3C83.7751 3 84.6435 3.19535 85.3258 3.54068L86.2289 1.7562C85.2029 1.23694 84.0087 1 82.6836 1V3ZM85.3323 3.54395C86.025 3.8882 86.5258 4.36053 86.8693 4.96365L88.6072 3.97385C88.0549 3.00405 87.2484 2.26284 86.2224 1.75293L85.3323 3.54395ZM86.8733 4.97047C87.2239 5.57503 87.418 6.31513 87.418 7.22656H89.418C89.418 6.02341 89.1589 4.92497 88.6033 3.96703L86.8733 4.97047ZM87.418 7.22656C87.418 8.14289 87.2215 8.87202 86.8725 9.45511L88.5885 10.4824C89.1561 9.53423 89.418 8.43524 89.418 7.22656H87.418ZM86.874 9.45253C86.5266 10.0289 86.0203 10.4833 85.3151 10.8127L86.1615 12.6248C87.1959 12.1417 88.0177 11.4294 88.5869 10.485L86.874 9.45253ZM85.313 10.8137C84.6139 11.1422 83.7204 11.3281 82.5977 11.3281V13.3281C83.9332 13.3281 85.1335 13.1078 86.1636 12.6238L85.313 10.8137ZM82.5977 11.3281H78.3711V13.3281H82.5977V11.3281ZM79.3711 12.3281V9.60938H77.3711V12.3281H79.3711ZM78.3711 10.6094H82.0508V8.60938H78.3711V10.6094ZM82.0508 10.6094C82.7796 10.6094 83.4567 10.5107 84.0432 10.2675L83.2771 8.42001C83.0094 8.53101 82.6137 8.60938 82.0508 8.60938V10.6094ZM84.0432 10.2675C84.6446 10.0181 85.1431 9.61849 85.4752 9.05389L83.7514 8.03986C83.6668 8.18359 83.5299 8.3152 83.2771 8.42001L84.0432 10.2675ZM85.4697 9.06322C85.7995 8.51613 85.9336 7.88577 85.9336 7.22656H83.9336C83.9336 7.61944 83.8541 7.86928 83.7569 8.03053L85.4697 9.06322ZM85.9336 7.22656C85.9336 6.5628 85.7999 5.93004 85.4762 5.37741L83.7504 6.38822C83.8538 6.56475 83.9336 6.82783 83.9336 7.22656H85.9336ZM85.4815 5.38667C85.1531 4.81186 84.6553 4.3997 84.0503 4.13727L83.2544 5.97211C83.514 6.08467 83.6568 6.22459 83.745 6.37895L85.4815 5.38667ZM84.0636 4.14318C83.4673 3.87409 82.7763 3.76562 82.0352 3.76562V5.76562C82.5961 5.76562 82.9833 5.84987 83.2411 5.96619L84.0636 4.14318ZM82.0352 3.76562H79.7539V5.76562H82.0352V3.76562ZM78.7539 4.76562V18H80.7539V4.76562H78.7539ZM79.7539 17H76.3711V19H79.7539V17ZM84.1341 11.1981L88.1106 18.4793L89.8659 17.5207L85.8894 10.2394L84.1341 11.1981ZM88.9883 17H85.2539V19H88.9883V17ZM86.1359 17.5287L82.2453 10.2475L80.4813 11.19L84.3719 18.4713L86.1359 17.5287ZM81.3633 11.7188H85.0117V9.71875H81.3633V11.7188ZM89.2051 2V1H87.4927L88.3341 2.49138L89.2051 2ZM92.9941 2L93.8779 1.53207L93.5962 1H92.9941V2ZM96.6426 8.89062L95.7588 9.35856L96.0405 9.89062H96.6426V8.89062ZM96.7988 8.89062V9.89062H97.4009L97.6826 9.35856L96.7988 8.89062ZM100.447 2V1H99.8452L99.5635 1.53207L100.447 2ZM104.236 2L105.107 2.49138L105.949 1H104.236V2ZM98.4004 12.3438L97.5294 11.8524L97.4004 12.0811V12.3438H98.4004ZM98.4004 18V19H99.4004V18H98.4004ZM95.041 18H94.041V19H95.041V18ZM95.041 12.3438H96.041V12.0811L95.912 11.8524L95.041 12.3438ZM89.2051 3H92.9941V1H89.2051V3ZM92.1104 2.46793L95.7588 9.35856L97.5263 8.42269L93.8779 1.53207L92.1104 2.46793ZM96.6426 9.89062H96.7988V7.89062H96.6426V9.89062ZM97.6826 9.35856L101.331 2.46793L99.5635 1.53207L95.9151 8.42269L97.6826 9.35856ZM100.447 3H104.236V1H100.447V3ZM103.365 1.50861L97.5294 11.8524L99.2713 12.8351L105.107 2.49138L103.365 1.50861ZM97.4004 12.3438V18H99.4004V12.3438H97.4004ZM98.4004 17H95.041V19H98.4004V17ZM96.041 18V12.3438H94.041V18H96.041ZM95.912 11.8524L90.076 1.50861L88.3341 2.49138L94.1701 12.8351L95.912 11.8524ZM106.084 18H105.084V19H106.084V18ZM106.084 2V1H105.084V2H106.084ZM115.498 2.69531L115.021 3.57424L115.025 3.57647L115.498 2.69531ZM117.451 4.60937L116.574 5.0898L116.578 5.09644L117.451 4.60937ZM115.451 12.1328L114.989 11.2459L114.987 11.2471L115.451 12.1328ZM108.287 12.8125H107.287V13.8125H108.287V12.8125ZM108.287 10.1016V9.10156H107.287V10.1016H108.287ZM113.373 9.76562L113.842 10.6489L113.846 10.6468L113.373 9.76562ZM114.326 8.82031L113.441 8.35503L113.439 8.35932L114.326 8.82031ZM114.326 6.03125L113.439 6.49224L113.442 6.49917L113.446 6.50604L114.326 6.03125ZM113.373 5.10156L112.909 5.98722L112.917 5.99161L113.373 5.10156ZM109.467 4.76562V3.76562H108.467V4.76562H109.467ZM109.467 18V19H110.467V18H109.467ZM107.084 18V2H105.084V18H107.084ZM106.084 3H112.396V1H106.084V3ZM112.396 3C113.484 3 114.345 3.20755 115.021 3.57423L115.975 1.81639C114.942 1.25599 113.736 1 112.396 1V3ZM115.025 3.57647C115.716 3.94704 116.223 4.44898 116.574 5.08979L118.328 4.12896C117.783 3.13435 116.989 2.36025 115.971 1.81415L115.025 3.57647ZM116.578 5.09644C116.937 5.73998 117.131 6.50533 117.131 7.42188H119.131C119.131 6.21342 118.872 5.10377 118.325 4.12231L116.578 5.09644ZM117.131 7.42188C117.131 8.33651 116.935 9.10031 116.572 9.74305L118.314 10.7257C118.868 9.74344 119.131 8.63224 119.131 7.42188H117.131ZM116.572 9.74305C116.214 10.378 115.696 10.8775 114.989 11.2459L115.913 13.0197C116.945 12.4819 117.756 11.7157 118.314 10.7257L116.572 9.74305ZM114.987 11.2471C114.298 11.6082 113.419 11.8125 112.311 11.8125V13.8125C113.66 13.8125 114.875 13.5637 115.915 13.0185L114.987 11.2471ZM112.311 11.8125H108.287V13.8125H112.311V11.8125ZM109.287 12.8125V10.1016H107.287V12.8125H109.287ZM108.287 11.1016H111.764V9.10156H108.287V11.1016ZM111.764 11.1016C112.522 11.1016 113.233 10.9722 113.842 10.6489L112.904 8.88237C112.67 9.00693 112.308 9.10156 111.764 9.10156V11.1016ZM113.846 10.6468C114.437 10.3297 114.906 9.87407 115.214 9.2813L113.439 8.35932C113.33 8.56864 113.164 8.7432 112.9 8.88446L113.846 10.6468ZM115.211 9.28559C115.511 8.71611 115.646 8.08616 115.646 7.42188H113.646C113.646 7.80968 113.569 8.11201 113.441 8.35503L115.211 9.28559ZM115.646 7.42188C115.646 6.75491 115.512 6.1225 115.206 5.55646L113.446 6.50604C113.568 6.73166 113.646 7.02634 113.646 7.42188H115.646ZM115.214 5.57026C114.903 4.97313 114.429 4.51879 113.829 4.21152L112.917 5.99161C113.171 6.12184 113.332 6.28728 113.439 6.49224L115.214 5.57026ZM113.837 4.21594C113.225 3.8947 112.51 3.76562 111.748 3.76562V5.76562C112.298 5.76562 112.667 5.86051 112.909 5.98718L113.837 4.21594ZM111.748 3.76562H109.467V5.76562H111.748V3.76562ZM108.467 4.76562V18H110.467V4.76562H108.467ZM109.467 17H106.084V19H109.467V17ZM119.719 4.78906H118.719V5.78906H119.719V4.78906ZM119.719 2V1H118.719V2H119.719ZM132.859 2H133.859V1H132.859V2ZM132.859 4.78906V5.78906H133.859V4.78906H132.859ZM127.961 4.78906V3.78906H126.961V4.78906H127.961ZM127.961 18V19H128.961V18H127.961ZM124.617 18H123.617V19H124.617V18ZM124.617 4.78906H125.617V3.78906H124.617V4.78906ZM120.719 4.78906V2H118.719V4.78906H120.719ZM119.719 3H132.859V1H119.719V3ZM131.859 2V4.78906H133.859V2H131.859ZM132.859 3.78906H127.961V5.78906H132.859V3.78906ZM126.961 4.78906V18H128.961V4.78906H126.961ZM127.961 17H124.617V19H127.961V17ZM125.617 18V4.78906H123.617V18H125.617ZM124.617 3.78906H119.719V5.78906H124.617V3.78906ZM148.004 14.4531L147.124 13.9777L147.123 13.9806L148.004 14.4531ZM145.316 17.2578L145.81 18.1278L145.811 18.127L145.316 17.2578ZM137.676 17.25L138.172 16.3818L137.676 17.25ZM134.996 14.4453L134.115 14.9178L134.996 14.4453ZM134.996 5.54688L135.877 6.01941V6.01941L134.996 5.54688ZM137.676 2.75L138.169 3.61997L138.172 3.61824L137.676 2.75ZM145.316 2.75L144.82 3.61826L144.825 3.62093L145.316 2.75ZM148.004 5.54688L147.123 6.01941L147.124 6.02231L148.004 5.54688ZM145.059 7.14062L144.14 7.53529L144.142 7.54048L145.059 7.14062ZM143.645 5.375L143.095 6.21033L143.645 5.375ZM139.363 5.375L139.913 6.21033L139.363 5.375ZM137.941 7.14062L137.025 6.74077L137.023 6.74596L137.941 7.14062ZM137.941 12.8594L137.023 13.254L137.025 13.2592L137.941 12.8594ZM139.363 14.625L139.913 13.7897L139.363 14.625ZM143.645 14.625L143.095 13.7897L143.645 14.625ZM145.059 12.8594L144.142 12.4595L144.14 12.4647L145.059 12.8594ZM147.996 10C147.996 11.6202 147.689 12.9323 147.124 13.9777L148.884 14.9286C149.642 13.526 149.996 11.8694 149.996 10H147.996ZM147.123 13.9806C146.549 15.0495 145.783 15.8419 144.822 16.3886L145.811 18.127C147.12 17.3821 148.146 16.3047 148.885 14.9257L147.123 13.9806ZM144.823 16.3878C143.856 16.936 142.758 17.2188 141.504 17.2188V19.2188C143.073 19.2188 144.516 18.8609 145.81 18.1278L144.823 16.3878ZM141.504 17.2188C140.24 17.2188 139.137 16.9334 138.172 16.3818L137.18 18.1182C138.475 18.8583 139.925 19.2188 141.504 19.2188V17.2188ZM138.172 16.3818C137.216 15.8354 136.451 15.0428 135.877 13.9728L134.115 14.9178C134.854 16.2957 135.875 17.373 137.18 18.1182L138.172 16.3818ZM135.877 13.9728C135.316 12.9263 135.012 11.6156 135.012 10H133.012C133.012 11.8636 133.363 13.5164 134.115 14.9178L135.877 13.9728ZM135.012 10C135.012 8.37866 135.317 7.06545 135.877 6.01941L134.115 5.07434C133.363 6.47621 133.012 8.13176 133.012 10H135.012ZM135.877 6.01941C136.451 4.94994 137.214 4.16095 138.169 3.61997L137.183 1.88003C135.877 2.6203 134.854 3.69589 134.115 5.07434L135.877 6.01941ZM138.172 3.61824C139.137 3.06659 140.24 2.78125 141.504 2.78125V0.78125C139.925 0.78125 138.475 1.14174 137.18 1.88176L138.172 3.61824ZM141.504 2.78125C142.756 2.78125 143.854 3.06595 144.82 3.61824L145.813 1.88176C144.519 1.14238 143.074 0.78125 141.504 0.78125V2.78125ZM144.825 3.62093C145.784 4.16224 146.55 4.95112 147.123 6.01941L148.885 5.07434C148.146 3.69471 147.119 2.61901 145.808 1.87907L144.825 3.62093ZM147.124 6.02231C147.689 7.06769 147.996 8.3798 147.996 10H149.996C149.996 8.13061 149.642 6.47398 148.884 5.07144L147.124 6.02231ZM146.566 10C146.566 8.77585 146.384 7.6776 145.975 6.74077L144.142 7.54048C144.41 8.15573 144.566 8.96374 144.566 10H146.566ZM145.977 6.74596C145.579 5.81916 144.992 5.06449 144.194 4.53967L143.095 6.21033C143.516 6.4876 143.871 6.91001 144.14 7.53529L145.977 6.74596ZM144.194 4.53967C143.402 4.01851 142.493 3.77344 141.504 3.77344V5.77344C142.151 5.77344 142.668 5.9294 143.095 6.21033L144.194 4.53967ZM141.504 3.77344C140.515 3.77344 139.605 4.01851 138.814 4.53967L139.913 6.21033C140.34 5.9294 140.857 5.77344 141.504 5.77344V3.77344ZM138.814 4.53967C138.018 5.06351 137.428 5.81628 137.025 6.74077L138.858 7.54048C139.132 6.91289 139.49 6.48858 139.913 6.21033L138.814 4.53967ZM137.023 6.74596C136.621 7.68119 136.441 8.77749 136.441 10H138.441C138.441 8.96209 138.595 8.15215 138.86 7.53529L137.023 6.74596ZM136.441 10C136.441 11.2225 136.621 12.3188 137.023 13.254L138.86 12.4647C138.595 11.8479 138.441 11.0379 138.441 10H136.441ZM137.025 13.2592C137.428 14.1837 138.018 14.9365 138.814 15.4603L139.913 13.7897C139.49 13.5114 139.132 13.0871 138.858 12.4595L137.025 13.2592ZM138.814 15.4603C139.605 15.9815 140.515 16.2266 141.504 16.2266V14.2266C140.857 14.2266 140.34 14.0706 139.913 13.7897L138.814 15.4603ZM141.504 16.2266C142.493 16.2266 143.402 15.9815 144.194 15.4603L143.095 13.7897C142.668 14.0706 142.151 14.2266 141.504 14.2266V16.2266ZM144.194 15.4603C144.992 14.9355 145.579 14.1808 145.977 13.254L144.14 12.4647C143.871 13.09 143.516 13.5124 143.095 13.7897L144.194 15.4603ZM145.975 13.2592C146.384 12.3224 146.566 11.2242 146.566 10H144.566C144.566 11.0363 144.41 11.8443 144.142 12.4595L145.975 13.2592ZM158.432 9.92969H159.432V8.92969H158.432V9.92969ZM158.432 11.5V12.5H159.432V11.5H158.432ZM156.557 12.0391L155.844 11.3371L155.839 11.3424L156.557 12.0391ZM155.627 17.8359L154.72 17.4148L154.718 17.4184L155.627 17.8359ZM154.502 19.1484L153.979 18.2958L153.975 18.2984L154.502 19.1484ZM152.791 19.7422L152.643 18.7532L152.642 18.7534L152.791 19.7422ZM150.619 19.8906H149.619V20.8906H150.619V19.8906ZM150.619 17.3984V16.3984H149.619V17.3984H150.619ZM152.018 17.1641L152.459 18.0614L152.465 18.0585L152.018 17.1641ZM152.674 16.4297L153.618 16.7594L153.62 16.7548L152.674 16.4297ZM153.064 11.7656L153.989 12.1464L153.991 12.1416L153.064 11.7656ZM153.877 10.8203L154.442 11.6457L154.449 11.6406L153.877 10.8203ZM155.572 10.1719L155.78 11.15L155.787 11.1485L155.572 10.1719ZM150.619 0.117188V-0.882813H149.619V0.117188H150.619ZM152.791 0.265624L152.642 1.25445L152.643 1.25462L152.791 0.265624ZM154.502 0.859375L153.975 1.70945L153.979 1.71198L154.502 0.859375ZM155.627 2.17969L154.717 2.59413L154.721 2.60391L155.627 2.17969ZM156.557 7.96094L155.839 8.65759L155.844 8.66286L156.557 7.96094ZM158.432 8.5H159.432V7.5H158.432V8.5ZM158.432 10.0703V11.0703H159.432V10.0703H158.432ZM155.572 9.83594L155.358 10.8126L155.364 10.814L155.572 9.83594ZM153.877 9.1875L153.305 10.0078L153.312 10.0128L153.877 9.1875ZM153.064 8.24219L152.138 8.61821L152.14 8.62294L153.064 8.24219ZM152.674 3.57812L151.728 3.90321L151.73 3.90781L152.674 3.57812ZM152.018 2.84375L151.565 3.73523L151.573 3.73966L151.582 3.74391L152.018 2.84375ZM150.619 2.60156H149.619V3.60156H150.619V2.60156ZM158.432 8.5H159.432V7.5H158.432V8.5ZM158.432 11.5V12.5H159.432V11.5H158.432ZM155.627 11.5H154.627V12.5H155.627V11.5ZM155.627 8.5V7.5H154.627V8.5H155.627ZM157.432 9.92969V11.5H159.432V9.92969H157.432ZM158.432 10.5C157.459 10.5 156.488 10.6841 155.844 11.3371L157.269 12.741C157.334 12.6752 157.612 12.5 158.432 12.5V10.5ZM155.839 11.3424C155.226 11.9737 155.033 12.8688 155.033 13.7812H157.033C157.033 13.0895 157.189 12.8232 157.274 12.7357L155.839 11.3424ZM155.033 13.7812V15.5156H157.033V13.7812H155.033ZM155.033 15.5156C155.033 16.3998 154.907 17.0125 154.72 17.4148L156.534 18.257C156.889 17.4927 157.033 16.5586 157.033 15.5156H155.033ZM154.718 17.4184C154.525 17.8389 154.275 18.1147 153.979 18.2958L155.025 20.001C155.698 19.5884 156.198 18.9893 156.536 18.2534L154.718 17.4184ZM153.975 18.2984C153.631 18.5116 153.195 18.6706 152.643 18.7532L152.939 20.7312C153.71 20.6158 154.415 20.379 155.029 19.9985L153.975 18.2984ZM152.642 18.7534C152.043 18.8436 151.37 18.8906 150.619 18.8906V20.8906C151.452 20.8906 152.226 20.8387 152.94 20.731L152.642 18.7534ZM151.619 19.8906V17.3984H149.619V19.8906H151.619ZM150.619 18.3984C151.29 18.3984 151.937 18.3178 152.459 18.0614L151.576 16.2667C151.462 16.3228 151.178 16.3984 150.619 16.3984V18.3984ZM152.465 18.0585C153.01 17.7856 153.414 17.3436 153.618 16.7594L151.73 16.1C151.705 16.172 151.671 16.2196 151.57 16.2696L152.465 18.0585ZM153.62 16.7548C153.782 16.2831 153.846 15.7479 153.846 15.1797H151.846C151.846 15.6115 151.795 15.9096 151.728 16.1046L153.62 16.7548ZM153.846 15.1797V12.8984H151.846V15.1797H153.846ZM153.846 12.8984C153.846 12.6218 153.895 12.3741 153.989 12.1464L152.14 11.3849C151.942 11.8655 151.846 12.373 151.846 12.8984H153.846ZM153.991 12.1416C154.047 12.0033 154.169 11.8319 154.442 11.6456L153.312 9.995C152.793 10.3504 152.373 10.8092 152.138 11.3896L153.991 12.1416ZM154.449 11.6406C154.692 11.4714 155.112 11.2922 155.78 11.15L155.364 9.19377C154.564 9.36401 153.854 9.61714 153.305 10.0001L154.449 11.6406ZM155.787 11.1485C156.423 11.0087 157.297 10.9297 158.432 10.9297V8.92969C157.223 8.92969 156.19 9.01215 155.358 9.1952L155.787 11.1485ZM150.619 1.11719C151.37 1.11719 152.043 1.16419 152.642 1.25445L152.94 -0.723197C152.226 -0.830854 151.452 -0.882813 150.619 -0.882813V1.11719ZM152.643 1.25462C153.195 1.33716 153.631 1.49618 153.975 1.70944L155.029 0.00930738C154.415 -0.371177 153.71 -0.607997 152.939 -0.723369L152.643 1.25462ZM153.979 1.71198C154.273 1.89166 154.523 2.16811 154.717 2.5941L156.537 1.76527C156.2 1.0246 155.7 0.42084 155.025 0.00677347L153.979 1.71198ZM154.721 2.60391C154.907 2.99909 155.033 3.60736 155.033 4.49219H157.033C157.033 3.44993 156.889 2.51653 156.533 1.75546L154.721 2.60391ZM155.033 4.49219V6.21875H157.033V4.49219H155.033ZM155.033 6.21875C155.033 7.13117 155.226 8.02633 155.839 8.65757L157.274 7.26431C157.189 7.17679 157.033 6.9105 157.033 6.21875H155.033ZM155.844 8.66286C156.488 9.31586 157.459 9.5 158.432 9.5V7.5C157.612 7.5 157.334 7.32477 157.269 7.25901L155.844 8.66286ZM157.432 8.5V10.0703H159.432V8.5H157.432ZM158.432 9.07031C157.295 9.07031 156.419 8.9938 155.78 8.85783L155.364 10.814C156.194 10.9906 157.224 11.0703 158.432 11.0703V9.07031ZM155.787 8.85926C155.115 8.71145 154.689 8.53133 154.442 8.36219L153.312 10.0128C153.857 10.3853 154.561 10.6375 155.358 10.8126L155.787 8.85926ZM154.449 8.36726C154.17 8.1725 154.045 7.99745 153.989 7.86144L152.14 8.62294C152.375 9.19526 152.793 9.65041 153.305 10.0077L154.449 8.36726ZM153.991 7.86617C153.895 7.62873 153.846 7.37903 153.846 7.10937H151.846C151.846 7.63139 151.943 8.1369 152.138 8.6182L153.991 7.86617ZM153.846 7.10937V4.82812H151.846V7.10937H153.846ZM153.846 4.82812C153.846 4.25696 153.782 3.71885 153.618 3.24844L151.73 3.90781C151.795 4.09364 151.846 4.38888 151.846 4.82812H153.846ZM153.62 3.25304C153.417 2.66273 153.011 2.21359 152.453 1.94359L151.582 3.74391C151.67 3.7864 151.702 3.82686 151.728 3.9032L153.62 3.25304ZM152.471 1.95226C151.945 1.68523 151.292 1.60156 150.619 1.60156V3.60156C151.175 3.60156 151.455 3.67935 151.565 3.73523L152.471 1.95226ZM151.619 2.60156V0.117188H149.619V2.60156H151.619ZM157.432 8.5V11.5H159.432V8.5H157.432ZM158.432 10.5H155.627V12.5H158.432V10.5ZM156.627 11.5V8.5H154.627V11.5H156.627ZM155.627 9.5H158.432V7.5H155.627V9.5Z" fill="black" mask="url(#path-1-outside-1_799_2636)"/>
</svg>
